<?xml version="1.0" encoding="iso-8859-1"?>
<!-- Generator: Adobe Illustrator 19.0.0, SVG Export Plug-In . SVG Version: 6.00 Build 0)  -->
<svg version="1.1" id="Layer_1" xmlns="http://www.w3.org/2000/svg" xmlns:xlink="http://www.w3.org/1999/xlink" x="0px" y="0px"
	 viewBox="0 0 295.8 295.8" style="enable-background:new 0 0 295.8 295.8;" xml:space="preserve">
<g>
	<g>
		<g>
			<path d="M295.519,33.333h-66.667V19.048h-19.048V0H85.994v19.048H66.947v14.286H0.281v28.571h66.667v9.524H50.69L36.405,85.714
				H0.281v9.524h40.067l14.286-14.286h12.314h4.762h14.286c0,7.876,6.41,14.286,14.286,14.286h7.552l11.495,11.495v69.457v9.524V200
				c0,9.738,5.89,18.105,14.286,21.79v66.867L147.9,295.8l14.286-7.143V221.79c8.395-3.686,14.286-12.052,14.286-21.79v-14.286
				v-9.524v-69.457l11.495-11.495h7.552c7.876,0,14.286-6.41,14.286-14.286h19.048V61.905h66.667L295.519,33.333L295.519,33.333z
				 M24.09,52.381H9.804v-9.524H24.09V52.381z M66.947,52.381H33.614v-9.524h33.333V52.381z M85.994,71.428h-9.524v-9.523V33.333
				v-4.762h9.524V71.428z M152.662,282.771L152.662,282.771l-4.762,2.381l-4.762-2.381V223.81h9.524V282.771z M152.661,214.286
				h-9.524c-7.876,0-14.286-6.41-14.286-14.286v-14.286h38.095V200h0.001C166.947,207.876,160.538,214.286,152.661,214.286z
				 M128.851,152.38v-42.857h38.095v42.857h-4.762v9.524h4.762v14.286h-38.095v-14.286h23.81v-9.524H128.851z M200.281,19.048
				h-9.524v9.524h9.524v52.381c0,2.623-2.138,4.761-4.762,4.761h-11.495L169.738,100h-43.676l-14.286-14.286h-11.495
				c-2.624,0-4.762-2.138-4.762-4.762V28.571h80.952v-9.524H95.518V9.524h104.762V19.048z M219.328,33.333v28.571v9.525h-9.524
				V28.571h9.524V33.333z M262.185,52.381h-33.333v-9.524h33.333V52.381z M285.996,52.381h-0.001H271.71v-9.524h14.286V52.381z"/>
			<rect x="114.567" y="52.381" width="9.524" height="9.524"/>
			<rect x="133.614" y="52.381" width="9.524" height="9.524"/>
			<rect x="152.661" y="52.381" width="9.524" height="9.524"/>
			<rect x="171.71" y="52.381" width="9.524" height="9.524"/>
		</g>
	</g>
</g>
<g>
</g>
<g>
</g>
<g>
</g>
<g>
</g>
<g>
</g>
<g>
</g>
<g>
</g>
<g>
</g>
<g>
</g>
<g>
</g>
<g>
</g>
<g>
</g>
<g>
</g>
<g>
</g>
<g>
</g>
</svg>
