<?xml version="1.0" encoding="iso-8859-1"?>
<!-- Generator: Adobe Illustrator 19.0.0, SVG Export Plug-In . SVG Version: 6.00 Build 0)  -->
<svg version="1.1" id="Capa_1" xmlns="http://www.w3.org/2000/svg" xmlns:xlink="http://www.w3.org/1999/xlink" x="0px" y="0px"
	 viewBox="0 0 60 60" style="enable-background:new 0 0 60 60;" xml:space="preserve">
<g>
	<g>
		<path d="M37,21c0-8.8-7.2-16-16-16S5,12.2,5,21s7.2,16,16,16S37,29.8,37,21z M21,35c-7.7,0-14-6.3-14-14S13.3,7,21,7s14,6.3,14,14
			S28.7,35,21,35z"/>
		<path d="M59,0H36v2h22v6H43v2h15v48H29V47c0-0.6-0.4-1-1-1h-2v-4.6c9.3-2.3,16-10.8,16-20.4C42,9.4,32.6,0,21,0S0,9.4,0,21
			c0,9.6,6.7,18.1,16,20.4V46h-2c-0.6,0-1,0.4-1,1v13h2v-3h6v-2h-6v-2h6v-2h-6v-3h2h8h2v12h2h30c0.6,0,1-0.4,1-1V1
			C60,0.4,59.6,0,59,0z M18,46v-5.4c0-0.5-0.3-0.9-0.8-1C8.4,37.8,2,30,2,21C2,10.5,10.5,2,21,2s19,8.5,19,19
			c0,9-6.4,16.8-15.2,18.6c-0.5,0.1-0.8,0.5-0.8,1V46H18z"/>
		<rect x="54" y="4" width="2" height="2"/>
		<rect x="50" y="4" width="2" height="2"/>
		<rect x="46" y="4" width="2" height="2"/>
		<rect x="32" y="54" width="2" height="2"/>
		<rect x="36" y="54" width="2" height="2"/>
		<rect x="40" y="54" width="2" height="2"/>
		<rect x="44" y="54" width="2" height="2"/>
		<rect x="48" y="54" width="2" height="2"/>
		<rect x="52" y="54" width="2" height="2"/>
		<rect x="36" y="50" width="2" height="2"/>
		<rect x="40" y="50" width="2" height="2"/>
		<rect x="44" y="50" width="2" height="2"/>
		<rect x="48" y="50" width="2" height="2"/>
		<rect x="52" y="50" width="2" height="2"/>
		<rect x="40" y="46" width="2" height="2"/>
		<rect x="44" y="46" width="2" height="2"/>
		<rect x="48" y="46" width="2" height="2"/>
		<rect x="52" y="46" width="2" height="2"/>
		<rect x="20" y="20" width="2" height="2"/>
		<rect x="24" y="20" width="2" height="2"/>
		<rect x="28" y="20" width="2" height="2"/>
		<rect x="16" y="20" width="2" height="2"/>
		<rect x="12" y="20" width="2" height="2"/>
		<rect x="20" y="16" width="2" height="2"/>
		<rect x="20" y="12" width="2" height="2"/>
		<rect x="20" y="24" width="2" height="2"/>
		<rect x="20" y="28" width="2" height="2"/>
		<rect x="24" y="24" width="2" height="2"/>
		<rect x="24" y="16" width="2" height="2"/>
		<rect x="16" y="16" width="2" height="2"/>
		<rect x="16" y="24" width="2" height="2"/>
	</g>
</g>
<g>
</g>
<g>
</g>
<g>
</g>
<g>
</g>
<g>
</g>
<g>
</g>
<g>
</g>
<g>
</g>
<g>
</g>
<g>
</g>
<g>
</g>
<g>
</g>
<g>
</g>
<g>
</g>
<g>
</g>
</svg>
