<?xml version="1.0" encoding="iso-8859-1"?>
<!-- Generator: Adobe Illustrator 19.0.0, SVG Export Plug-In . SVG Version: 6.00 Build 0)  -->
<svg version="1.1" id="Layer_1" xmlns="http://www.w3.org/2000/svg" xmlns:xlink="http://www.w3.org/1999/xlink" x="0px" y="0px"
	 viewBox="0 0 512 512" style="enable-background:new 0 0 512 512;" xml:space="preserve">
<g>
	<g>
		<path d="M503.916,352.576h-51.921c-0.183-11.432-9.54-20.676-21.016-20.676h-16.465c-2.189-9.603-10.782-16.798-21.038-16.798
			h-3.32c-10.256,0-18.849,7.195-21.038,16.798h-25.442c-11.475,0-20.832,9.243-21.016,20.676h-26.778v-37.209
			c11.408-0.21,20.63-9.542,20.63-21v-77.529c9.627-2.172,16.844-10.777,16.844-21.05v-3.32c0-11.906-9.687-21.594-21.593-21.594
			h-32.507V158.44h27.767c4.466,0,8.084-3.618,8.084-8.084v-15.697h18.078c11.59,0,21.019-9.429,21.019-21.019V63.208
			c0-11.59-9.429-21.019-21.019-21.019H178.3c-11.59,0-21.019,9.429-21.019,21.019v50.431c0,11.59,9.429,21.019,21.019,21.019
			h18.597v15.697c0,4.466,3.618,8.084,8.084,8.084h27.767v12.436h-32.509c-11.906,0-21.593,9.687-21.593,21.594v3.32
			c0,10.087,6.963,18.557,16.328,20.918v77.661c0,11.59,9.429,21.019,21.019,21.019h0.126v37.19h-27.293
			c-0.183-11.432-9.54-20.676-21.016-20.676h-20.953c-2.189-9.603-10.782-16.798-21.038-16.798h-3.32
			c-10.256,0-18.849,7.195-21.038,16.798H80.506c-11.475,0-20.832,9.243-21.016,20.676H8.084c-4.466,0-8.084,3.618-8.084,8.084
			v63.596c0,4.466,3.619,8.084,8.084,8.084h51.403v0.078c0,11.59,9.429,21.019,21.019,21.019h21.062
			c2.343,9.388,10.825,16.374,20.93,16.374h3.32c10.104,0,18.585-6.986,20.93-16.374h21.062c11.589,0,21.019-9.429,21.019-21.019
			v-0.078h82.263c4.466,0,8.084-3.618,8.084-8.084c0-4.466-3.618-8.084-8.084-8.084h-90.347c-4.466,0-8.084,3.618-8.084,8.084v8.162
			c0,2.674-2.176,4.851-4.851,4.851h-20.398v-89.2h20.398c2.674,0,4.851,2.175,4.851,4.851v7.741c0,4.466,3.618,8.084,8.084,8.084
			h43.459c4.466,0,8.084-3.619,8.084-8.084v-45.274h47.427v45.274c0,4.466,3.618,8.084,8.084,8.084h42.943
			c4.466,0,8.084-3.619,8.084-8.084v-7.741c0-2.675,2.176-4.851,4.851-4.851h24.886v89.2h-24.886c-2.674,0-4.851-2.176-4.851-4.851
			v-8.162c0-4.466-3.618-8.084-8.084-8.084h-31.625c-4.466,0-8.084,3.618-8.084,8.084c0,4.466,3.619,8.084,8.084,8.084h23.541v0.078
			c0,11.59,9.429,21.019,21.019,21.019h25.55c2.343,9.388,10.825,16.374,20.929,16.374h3.32c10.104,0,18.585-6.986,20.929-16.374
			h16.574c11.59,0,21.019-9.429,21.019-21.019v-0.078h51.918c4.466,0,8.084-3.618,8.084-8.084V360.66
			C512,356.195,508.382,352.576,503.916,352.576z M333.184,58.356c2.675,0.001,4.851,2.176,4.851,4.852v50.431
			c0,2.674-2.176,4.851-4.851,4.851h-4.803V58.827c0-0.158-0.015-0.314-0.024-0.471H333.184z M183.103,58.828v59.663H178.3
			c-2.674-0.001-4.851-2.177-4.851-4.852V63.208c0-2.675,2.176-4.851,4.851-4.851h4.827
			C183.118,58.514,183.103,58.669,183.103,58.828z M100.904,437.268H80.506c-2.675,0-4.851-2.176-4.851-4.851v-8.162
			c0-4.466-3.618-8.084-8.084-8.084H16.168v-47.427h51.403c4.466,0,8.084-3.618,8.084-8.084v-7.741c0-2.675,2.176-4.851,4.851-4.851
			h20.398V437.268z M131.242,339.984v105.369v2.865c0,2.991-2.434,5.425-5.425,5.425h-3.32c-2.991,0-5.425-2.434-5.425-5.425v-2.865
			V339.984v-3.289c0-2.991,2.434-5.425,5.425-5.425h3.32c2.991,0,5.425,2.434,5.425,5.425V339.984z M312.236,58.356
			c-0.009,0.156-0.024,0.312-0.024,0.471v59.663h-5.191h-4.463V58.827c0-0.158-0.015-0.314-0.024-0.471H312.236z M286.414,58.357
			c-0.009,0.156-0.024,0.312-0.024,0.471v59.663h-9.653V58.827c0-0.158-0.014-0.314-0.024-0.47H286.414z M260.593,58.357
			c-0.009,0.156-0.024,0.312-0.024,0.471v59.663h-9.655V58.827c0-0.158-0.014-0.314-0.024-0.47H260.593z M234.77,58.357
			c-0.009,0.156-0.024,0.312-0.024,0.471v59.663h-9.653V58.827c0-0.158-0.015-0.314-0.024-0.47H234.77z M208.925,58.827v59.663
			h-3.944h-5.71V58.827c0-0.158-0.015-0.314-0.024-0.471h9.701C208.94,58.512,208.925,58.668,208.925,58.827z M213.065,142.271
			v-7.613h85.872v7.613H271.17h-30.338H213.065z M263.086,158.439v12.436h-14.17v-12.436H263.086z M287.798,299.218h-63.596h-8.21
			c-2.674,0-4.851-2.176-4.851-4.851v-76.985h48.631c4.466,0,8.084-3.618,8.084-8.084c0-4.466-3.619-8.084-8.084-8.084h-59.534
			c-2.991,0-5.425-2.434-5.425-5.425v-3.32c0-2.991,2.434-5.425,5.425-5.425h40.594h30.338h40.591c2.991,0,5.425,2.434,5.425,5.425
			v3.32c0,2.991-2.434,5.425-5.425,5.425h-23.856c-4.466,0-8.084,3.618-8.084,8.084c0,4.466,3.618,8.084,8.084,8.084h12.438v76.985
			c0,2.674-2.176,4.851-4.851,4.851H287.798z M398.901,339.984v105.369v2.865c0,2.991-2.434,5.425-5.425,5.425h-3.32
			c-2.991,0-5.425-2.434-5.425-5.425v-2.865V339.984v-3.289c0-2.991,2.434-5.425,5.425-5.425h3.32c2.991,0,5.425,2.434,5.425,5.425
			V339.984z M495.832,416.172h-51.918c-4.466,0-8.084,3.619-8.084,8.084v8.162c0,2.674-2.176,4.851-4.851,4.851h-15.91v-89.2h15.91
			c2.674,0,4.851,2.175,4.851,4.851v7.741c0,4.466,3.618,8.084,8.084,8.084h51.918V416.172z"/>
	</g>
</g>
<g>
</g>
<g>
</g>
<g>
</g>
<g>
</g>
<g>
</g>
<g>
</g>
<g>
</g>
<g>
</g>
<g>
</g>
<g>
</g>
<g>
</g>
<g>
</g>
<g>
</g>
<g>
</g>
<g>
</g>
</svg>
